<svg width="16" height="16" viewBox="0 0 16 16" fill="none" xmlns="http://www.w3.org/2000/svg">
<path d="M9.33336 2V4.66667C9.33336 4.84348 9.4036 5.01305 9.52862 5.13807C9.65365 5.2631 9.82321 5.33333 10 5.33333H12.6667" stroke="#0EAA4F" stroke-width="1.33333" stroke-linecap="round" stroke-linejoin="round"/>
<path d="M11.3334 14H4.66669C4.31307 14 3.97393 13.8595 3.72388 13.6095C3.47383 13.3594 3.33336 13.0203 3.33336 12.6667V3.33333C3.33336 2.97971 3.47383 2.64057 3.72388 2.39052C3.97393 2.14048 4.31307 2 4.66669 2H9.33336L12.6667 5.33333V12.6667C12.6667 13.0203 12.5262 13.3594 12.2762 13.6095C12.0261 13.8595 11.687 14 11.3334 14Z" stroke="#0EAA4F" stroke-width="1.33333" stroke-linecap="round" stroke-linejoin="round"/>
<path d="M6 6H6.66667" stroke="#0EAA4F" stroke-width="1.33333" stroke-linecap="round" stroke-linejoin="round"/>
<path d="M6 8.66669H10" stroke="#0EAA4F" stroke-width="1.33333" stroke-linecap="round" stroke-linejoin="round"/>
<path d="M6 11.3333H10" stroke="#0EAA4F" stroke-width="1.33333" stroke-linecap="round" stroke-linejoin="round"/>
</svg>
