<svg width="141" height="14" viewBox="0 0 141 14" fill="none" xmlns="http://www.w3.org/2000/svg">
  <path fill-rule="evenodd" clip-rule="evenodd" d="M22.4584 8.72779V8.70048C22.4584 7.6761 21.9208 7.15707 21.0472 6.81562C21.5848 6.51511 22.0417 6.0234 22.0417 5.16292V5.1356C22.0417 3.93367 21.0875 3.15511 19.5553 3.15511H16.0475V10.8175H19.6359C21.3294 10.8312 22.4584 10.121 22.4584 8.72779ZM20.3886 5.44976C20.3886 6.0234 19.9316 6.25561 19.1924 6.25561H17.6603V4.63023H19.3C19.9988 4.63023 20.3886 4.91707 20.3886 5.42245V5.44976ZM20.8052 8.52292C20.8052 9.09659 20.3617 9.35609 19.6359 9.35609H17.6603V7.66244H19.5822C20.4289 7.66244 20.8052 7.97657 20.8052 8.49561V8.52292ZM25.9393 10.8312V3.16877H24.2728V10.8312H25.9393ZM34.8635 10.8312V3.16877H33.2239V7.89463L29.6892 3.16877H28.157V10.8312H29.7968V5.95511L33.4523 10.8312H34.8635ZM44.0566 10.8312L40.8175 3.11413H39.2854L36.0463 10.8312H37.7398L38.4253 9.11024H41.6105L42.2959 10.8312H44.0566ZM41.0326 7.62147H39.03L40.0381 5.1356L41.0326 7.62147ZM51.9593 10.8312V3.16877H50.3197V7.89463L46.785 3.16877H45.2527V10.8312H46.8923V5.95511L50.5481 10.8312H51.9593ZM60.5342 9.5883L59.4722 8.50926C58.8811 9.05561 58.3568 9.41072 57.4831 9.41072C56.193 9.41072 55.2924 8.31805 55.2924 7.00683V6.97951C55.2924 5.66829 56.2062 4.58925 57.4831 4.58925C58.2357 4.58925 58.8271 4.91707 59.4185 5.44976L60.4803 4.20683C59.7813 3.51025 58.9347 3.01853 57.5102 3.01853C55.1984 3.01853 53.5721 4.80781 53.5721 6.97951V7.00683C53.5721 9.20585 55.2253 10.9542 57.443 10.9542C58.8943 10.9542 59.7545 10.4351 60.5342 9.5883ZM67.6171 10.8175V9.32877H63.5178V7.71707H67.0793V6.21464H63.5178V4.65757H67.5632V3.15511H61.8782V10.8175H67.6171ZM2.29827 2.14439L5.95394 0L9.60965 2.14439L8.26565 2.93658L5.95394 1.58439L3.64227 2.93658L2.29827 2.14439ZM9.60965 4.84878L8.26565 4.05659L5.95394 5.40879L3.64227 4.05659L2.29827 4.84878V6.43317L4.60994 7.78536V10.4898L5.95394 11.2819L7.29798 10.4898V7.78536L9.60965 6.43317V4.84878ZM9.60965 9.13756V7.55318L8.26565 8.34537V9.92975L9.60965 9.13756ZM10.5639 9.69757L8.25221 11.0498V12.6341L11.9079 10.4898V6.20098L10.5639 6.99317V9.69757ZM9.21991 3.49659L10.5639 4.28878V5.87316L11.9079 5.08097V3.49659L10.5639 2.7044L9.21991 3.49659ZM4.60994 11.6234V13.2078L5.95394 14L7.29798 13.2078V11.6234L5.95394 12.4156L4.60994 11.6234ZM2.29827 9.13756L3.64227 9.92975V8.34537L2.29827 7.55318V9.13756ZM4.60994 3.49659L5.95394 4.28878L7.29798 3.49659L5.95394 2.7044L4.60994 3.49659ZM1.34401 4.28878L2.68801 3.49659L1.34401 2.7044L0 3.49659V5.08097L1.34401 5.87316V4.28878ZM1.34401 6.99317L0 6.20098V10.4898L3.65568 12.6341V11.0498L1.34401 9.69757V6.99317ZM75.8088 11.0331C73.6046 11.0331 71.965 9.28475 71.965 7.07207C71.965 4.88671 73.5778 3.09746 75.8624 3.09746C77.2604 3.09746 78.0937 3.58914 78.8192 4.28573L77.9726 5.28282C77.3679 4.70916 76.7226 4.3267 75.8624 4.3267C74.4111 4.3267 73.3762 5.52866 73.3762 7.04476C73.3762 8.56085 74.4244 9.79012 75.8624 9.79012C76.7898 9.79012 77.3812 9.4077 78.0265 8.79306L78.8731 9.6672C78.0937 10.5004 77.2335 11.0331 75.8088 11.0331ZM81.3596 7.65939V10.8965H80.0289V3.22038H81.3596V6.41646H84.9615V3.22038H86.292V10.8965H84.9615V7.65939H81.3596ZM95.2164 10.8965H93.8184L93.039 9.03891H89.4639L88.6845 10.8965H87.3269L90.6465 3.16575H91.8697L95.2164 10.8965ZM91.2515 4.77745L89.9611 7.85061H92.5551L91.2515 4.77745ZM97.6221 3.22038V10.8965H96.2914V3.22038H97.6221ZM104.745 3.22038H106.049V10.8965H104.933L100.767 5.43306V10.8965H99.4633V3.22038H100.686L104.732 8.51987V3.22038H104.745ZM132.693 6.98895C132.693 4.82542 131.08 3.04435 128.768 3.04435C126.457 3.04435 124.822 4.84729 124.822 7.01079C124.822 9.17431 126.435 10.9554 128.747 10.9554C131.059 10.9554 132.693 9.15245 132.693 6.98895ZM131.306 7.01079C131.306 8.50777 130.263 9.72066 128.768 9.72066C127.274 9.72066 126.209 8.4859 126.209 6.98895C126.209 5.49197 127.252 4.27908 128.747 4.27908C130.241 4.27908 131.306 5.51383 131.306 7.01079ZM111.17 3.17548H114.546C116.062 3.17548 117.019 3.92942 117.019 5.13138C117.019 6.07108 116.503 6.55187 115.943 6.84689C116.825 7.15285 117.438 7.6664 117.438 8.71539C117.438 10.0922 116.33 10.8243 114.653 10.8243H111.17V3.17548ZM112.471 6.3989H114.277C115.126 6.3989 115.696 6.06015 115.696 5.34991C115.696 4.72709 115.223 4.36651 114.374 4.36651H112.471V6.3989ZM112.471 9.63323H114.664C115.567 9.63323 116.116 9.27264 116.116 8.57333C116.116 7.91772 115.61 7.53527 114.567 7.53527H112.471V9.63323ZM124.208 10.8243H118.929V3.17548H120.252V9.60046H124.208V10.8243ZM141 6.55187V9.76436C140.258 10.409 139.194 10.9554 137.86 10.9554C135.506 10.9554 133.957 9.25081 133.957 7.01079C133.957 4.85822 135.57 3.04435 137.839 3.04435C139.151 3.04435 139.957 3.41587 140.731 4.08241L139.892 5.09861C139.312 4.59596 138.742 4.27908 137.785 4.27908C136.398 4.27908 135.344 5.5029 135.344 6.98895C135.344 8.57333 136.366 9.73156 137.903 9.73156C138.613 9.73156 139.258 9.5021 139.721 9.15245V7.72103H137.796V6.55187H141Z" fill="#F0B90B"/>
</svg>
