<svg width="30" height="30" viewBox="0 0 16 16" fill="none" xmlns="http://www.w3.org/2000/svg">
<g opacity="0.8">
<path d="M8 14C11.3137 14 14 11.3137 14 8C14 4.68629 11.3137 2 8 2C4.68629 2 2 4.68629 2 8C2 11.3137 4.68629 14 8 14Z" stroke="#F4F4F6" stroke-linecap="round" stroke-linejoin="round"/>
<path fill-rule="evenodd" clip-rule="evenodd" d="M7.80434 5.85975C7.57155 5.85975 7.36302 5.93981 7.22165 6.06098C7.08307 6.17977 7.02674 6.31983 7.02674 6.44295C7.02674 6.76504 6.76564 7.02614 6.44355 7.02614C6.12146 7.02614 5.86035 6.76504 5.86035 6.44295C5.86035 5.94737 6.09076 5.49408 6.46257 5.17539C6.83161 4.85908 7.31532 4.69336 7.80434 4.69336H8.19313C8.68215 4.69336 9.16587 4.85908 9.5349 5.17539C9.90252 5.49049 10.1319 5.93718 10.137 6.42622C10.1547 6.79933 10.0525 7.16846 9.84515 7.47949C9.64189 7.78438 9.34824 8.01747 9.00591 8.14636C8.91155 8.19637 8.80192 8.29954 8.71439 8.47461C8.62164 8.6601 8.57097 8.89445 8.5814 9.13974C8.59509 9.46154 8.34532 9.73351 8.02352 9.7472C7.70172 9.76089 7.42976 9.51111 7.41607 9.18931C7.39787 8.76146 7.48338 8.32849 7.67113 7.95299C7.85847 7.57832 8.1499 7.25893 8.52876 7.0813C8.54641 7.07302 8.56447 7.06564 8.58287 7.05917C8.70213 7.01723 8.80453 6.93768 8.87465 6.83249C8.94478 6.72731 8.97882 6.60218 8.97166 6.47597C8.97104 6.46497 8.97073 6.45396 8.97073 6.44295C8.97073 6.31983 8.9144 6.17977 8.77582 6.06098C8.63446 5.93981 8.42592 5.85975 8.19313 5.85975H7.80434Z" fill="#F4F4F6"/>
<path fill-rule="evenodd" clip-rule="evenodd" d="M8.00019 10.1364C8.32228 10.1364 8.58338 10.3975 8.58338 10.7195V10.7234C8.58338 11.0455 8.32228 11.3066 8.00019 11.3066C7.6781 11.3066 7.41699 11.0455 7.41699 10.7234V10.7195C7.41699 10.3975 7.6781 10.1364 8.00019 10.1364Z" fill="#F4F4F6"/>
</g>
</svg>
