<svg width="110" height="29" viewBox="0 0 110 29" fill="none" xmlns="http://www.w3.org/2000/svg">
  <g clip-path="url(#clip0)">
    <path d="M16.2636 9.05849C16.2636 11.216 15.4151 13.1671 14.0267 14.6172C12.6442 13.1671 11.7898 11.216 11.7898 9.05849C11.7898 6.90102 12.6383 4.94986 14.0267 3.49976C15.4151 4.94986 16.2636 6.90691 16.2636 9.05849Z" fill="#0BAE4D"/>
    <path d="M16.0737 10.8094C15.7533 12.2654 15.0294 13.574 14.0266 14.6174C13.0298 13.574 12.3059 12.2654 11.9855 10.8094C12.6382 10.6385 13.3206 10.55 14.0266 10.55C14.7386 10.55 15.421 10.6385 16.0737 10.8094Z" fill="#6CBD45"/>
    <path d="M22.1614 18.6256C22.1614 23.0879 18.5182 26.7014 14.0266 26.7014C9.53502 26.7014 5.89783 23.0879 5.89783 18.6256C5.89783 18.0244 5.96309 17.4408 6.09363 16.8749C6.74631 17.0458 7.42865 17.1342 8.13473 17.1342C10.4547 17.1342 12.5551 16.1675 14.0326 14.6172C15.51 16.1734 17.6104 17.1342 19.9304 17.1342C20.6424 17.1342 21.3248 17.0458 21.9774 16.8749C22.0961 17.4408 22.1614 18.0244 22.1614 18.6256Z" fill="#FFDE16"/>
    <path d="M14.0266 14.6173C12.5492 16.1735 10.4488 17.1344 8.12881 17.1344C7.42273 17.1344 6.74039 17.046 6.08771 16.875C6.74632 13.91 9.04256 11.558 11.9855 10.8093C12.3059 12.2653 13.0298 13.5799 14.0266 14.6173Z" fill="#0054A6"/>
    <path d="M11.7898 9.05858C11.7898 9.65984 11.855 10.2434 11.9856 10.8093C9.04257 11.5579 6.74632 13.9158 6.08771 16.875C2.58698 15.979 0 12.8194 0 9.05858C0 4.59626 3.6372 0.982788 8.12882 0.982788C10.4488 0.982788 12.5492 1.94953 14.0267 3.49984C12.6442 4.94995 11.7898 6.907 11.7898 9.05858Z" fill="#213F9A"/>
    <path d="M21.9715 16.8809C21.3188 17.0518 20.6365 17.1403 19.9245 17.1403C17.6045 17.1403 15.5041 16.1735 14.0266 14.6232C15.0294 13.5798 15.7473 12.2712 16.0737 10.8152C19.0107 11.5697 21.3129 13.9158 21.9715 16.8809Z" fill="#6EB544"/>
    <path d="M28.0592 9.05858C28.0592 12.8194 25.4723 15.979 21.9715 16.875C21.3129 13.91 19.0167 11.5638 16.0737 10.8093C16.1983 10.2434 16.2695 9.65984 16.2695 9.05858C16.2695 6.90111 15.421 4.94995 14.0326 3.49984C15.51 1.94363 17.6105 0.982788 19.9304 0.982788C24.4161 0.982788 28.0592 4.59626 28.0592 9.05858Z" fill="#0DA14B"/>
    <path d="M4.68744 5.66919L11.5821 7.9033L8.30684 9.22961L6.97181 12.4481L4.68744 5.66919Z" fill="white"/>
    <path d="M21.0875 12.6308L19.7525 9.41226L16.4772 8.08595L23.3719 5.84595L21.0875 12.6308Z" fill="white"/>
    <path d="M10.7811 17.6236L14.0148 18.9676L17.2722 17.606L13.9911 24.0312L10.7811 17.6236Z" fill="white"/>
    <path d="M41.7358 21.7875H36.6508V6.7854H41.7358C43.0412 6.7854 44.1092 6.92098 44.9577 7.19214C45.8002 7.4633 46.4588 7.9113 46.9216 8.53614C47.3904 9.16098 47.7108 9.89782 47.8888 10.7408C48.0668 11.5837 48.1558 12.686 48.1558 14.0359C48.1558 15.3917 48.0727 16.5117 47.9125 17.4018C47.7523 18.2919 47.4438 19.0877 46.9928 19.7833C46.5419 20.4848 45.8833 20.9917 45.0289 21.3041C44.1626 21.6284 43.0649 21.7875 41.7358 21.7875ZM44.9517 15.8279C44.9814 15.3563 44.9933 14.7079 44.9933 13.8768C44.9933 13.0456 44.9636 12.3795 44.9043 11.8785C44.8449 11.3774 44.7025 10.9235 44.483 10.5109C44.2634 10.0982 43.9312 9.8153 43.4921 9.66203C43.053 9.50877 42.4656 9.43214 41.7239 9.43214H39.7006V19.1349H41.7239C42.8335 19.1349 43.6404 18.8578 44.1448 18.2978C44.5838 17.8439 44.8509 17.0187 44.9517 15.8279Z" fill="white"/>
    <path d="M53.5374 18.9934C53.8875 19.294 54.3859 19.4473 55.0385 19.4473C56.4151 19.4473 57.6433 19.406 58.7232 19.3176L59.3462 19.2528L59.3877 21.4338C57.6848 21.8465 56.1481 22.0528 54.7715 22.0528C53.0983 22.0528 51.8879 21.6107 51.1284 20.7265C50.369 19.8422 49.9951 18.4098 49.9951 16.4233C49.9951 12.4679 51.6328 10.4873 54.9021 10.4873C58.1298 10.4873 59.7437 12.1496 59.7437 15.4742L59.5242 17.5256H52.9975C53.0034 18.2035 53.1873 18.6928 53.5374 18.9934ZM56.8126 15.2797C56.8126 14.3955 56.6702 13.7825 56.3914 13.4406C56.1125 13.0928 55.62 12.9218 54.9139 12.9218C54.2079 12.9218 53.7154 13.1046 53.4247 13.4641C53.1339 13.8237 52.9856 14.4309 52.9678 15.2856H56.8126V15.2797Z" fill="white"/>
    <path d="M62.1409 21.7875V6.7854H71.7768V9.43214H65.2026V13.8414H70.5782V16.4881H65.2026V21.7875H62.1409Z" fill="white"/>
    <path d="M73.6636 9.34368V6.34326H76.6363V9.34368H73.6636ZM73.6636 21.7875V10.7525H76.6363V21.7875H73.6636Z" fill="white"/>
    <path d="M79.3894 21.7875V10.7526H82.3443V11.9197C83.5903 11.1829 84.771 10.7054 85.8984 10.4873V13.4641C84.6998 13.7117 83.6674 13.9711 82.813 14.2364L82.368 14.3896V21.7875H79.3894Z" fill="white"/>
    <path d="M90.6392 18.9934C90.9893 19.294 91.4877 19.4473 92.1403 19.4473C93.5169 19.4473 94.7451 19.406 95.825 19.3176L96.448 19.2528L96.4895 21.4338C94.7866 21.8465 93.2499 22.0528 91.8733 22.0528C90.2001 22.0528 88.9897 21.6107 88.2302 20.7265C87.4707 19.8422 87.0969 18.4098 87.0969 16.4233C87.0969 12.4679 88.7345 10.4873 92.0039 10.4873C95.2317 10.4873 96.8456 12.1496 96.8456 15.4742L96.626 17.5256H90.0992C90.1111 18.2035 90.2891 18.6928 90.6392 18.9934ZM93.9144 15.2797C93.9144 14.3955 93.772 13.7825 93.4932 13.4406C93.2143 13.0928 92.7218 12.9218 92.0157 12.9218C91.3097 12.9218 90.8172 13.1046 90.5264 13.4641C90.2357 13.8237 90.0874 14.4309 90.0696 15.2856H93.9144V15.2797Z" fill="white"/>
    <path d="M101.088 6.7854L103.889 12.3029L106.754 6.7854H109.929L105.58 14.4427L109.929 21.7875H106.529L103.728 16.606L100.863 21.7875H97.6881L102.037 14.5959L97.6881 6.7854H101.088Z" fill="white"/>
  </g>
  <defs>
    <clipPath id="clip0">
      <rect width="110" height="28" fill="white" transform="translate(0 0.599609)"/>
    </clipPath>
  </defs>
</svg>
