<svg width="16" height="16" viewBox="0 0 16 16" fill="none" xmlns="http://www.w3.org/2000/svg">
<path d="M12.6667 10.6667V12.6667C12.6667 12.8435 12.5964 13.0131 12.4714 13.1381C12.3464 13.2631 12.1768 13.3334 12 13.3334H4.00002C3.6464 13.3334 3.30726 13.1929 3.05721 12.9428C2.80716 12.6928 2.66669 12.3536 2.66669 12V4.00002M11.3334 5.33335V3.33335C11.3334 3.15654 11.2631 2.98697 11.1381 2.86195C11.0131 2.73693 10.8435 2.66669 10.6667 2.66669H4.00002C3.6464 2.66669 3.30726 2.80716 3.05721 3.05721C2.80716 3.30726 2.66669 3.6464 2.66669 4.00002C2.66669 4.35364 2.80716 4.69278 3.05721 4.94283C3.30726 5.19288 3.6464 5.33335 4.00002 5.33335H12C12.1768 5.33335 12.3464 5.40359 12.4714 5.52862C12.5964 5.65364 12.6667 5.82321 12.6667 6.00002V8.00002L11.3334 5.33335Z" stroke="#0EAA4F" stroke-width="1.33333" stroke-linecap="round" stroke-linejoin="round"/>
<path d="M13.3333 8V10.6667H10.6666C10.313 10.6667 9.97389 10.5262 9.72384 10.2761C9.47379 10.0261 9.33331 9.68695 9.33331 9.33333C9.33331 8.97971 9.47379 8.64057 9.72384 8.39052C9.97389 8.14048 10.313 8 10.6666 8H13.3333Z" stroke="#0EAA4F" stroke-width="1.33333" stroke-linecap="round" stroke-linejoin="round"/>
</svg>
