<svg width="16" height="16" viewBox="0 0 16 16" fill="none" xmlns="http://www.w3.org/2000/svg">
  <path d="M6 8.00002L7.33333 9.33335L10 6.66669" stroke="white" stroke-width="1.33333" stroke-linecap="round" stroke-linejoin="round"/>
  <path d="M8.00003 2C9.55725 3.37772 11.5897 4.09504 13.6667 4C13.9691 5.02868 14.0616 6.10764 13.9388 7.17279C13.8159 8.23793 13.4802 9.26751 12.9516 10.2004C12.423 11.1332 11.7123 11.9503 10.8617 12.603C10.011 13.2557 9.03789 13.7308 8.00003 14C6.96217 13.7308 5.98902 13.2557 5.1384 12.603C4.28777 11.9503 3.57704 11.1332 3.04843 10.2004C2.51982 9.26751 2.18412 8.23793 2.06128 7.17279C1.93844 6.10764 2.03097 5.02868 2.33337 4C4.41038 4.09504 6.44281 3.37772 8.00003 2" stroke="white" stroke-width="1.33333" stroke-linecap="round" stroke-linejoin="round"/>
</svg>
